<mxfile host="app.diagrams.net" modified="2024-06-29T15:32:13.824Z" agent="Mozilla/5.0 (Windows NT 10.0; Win64; x64) AppleWebKit/537.36 (KHTML, like Gecko) Chrome/123.0.0.0 Safari/537.36 OPR/109.0.0.0 (Edition std-1)" version="24.6.4" etag="I7GVktprj315n7bY36zN" type="github">
  <diagram name="Page-1" id="KORfx_rgJJSa538WkR3o">
    <mxGraphModel>
      <root>
        <mxCell id="0" />
        <mxCell id="1" parent="0" />
      </root>
    </mxGraphModel>
  </diagram>
</mxfile>
